<svg width="48" height="48" viewBox="0 0 48 48" fill="none" xmlns="http://www.w3.org/2000/svg">
<rect width="48" height="48" rx="24" fill="#F3F5F6"/>
<path d="M18.1357 18.6706C18.0716 18.8717 18.0915 19.1214 18.1843 19.2893C18.2241 19.3556 19.0284 20.1776 20.5464 21.6956L22.851 24.0002L20.5486 26.3026C19.0284 27.8228 18.2241 28.6448 18.1843 28.7111C17.9479 29.1287 18.1932 29.7054 18.6727 29.8623C18.8715 29.9286 19.1212 29.9087 19.2891 29.8159C19.3554 29.7761 20.1774 28.9718 21.6976 27.4516L24 25.1492L26.3024 27.4516C27.8226 28.9718 28.6446 29.7761 28.7109 29.8159C29.1285 30.0523 29.7052 29.807 29.8621 29.3275C29.9284 29.1287 29.9085 28.879 29.8157 28.7111C29.7759 28.6448 28.9716 27.8228 27.4514 26.3026L25.149 24.0002L27.4536 21.6956C28.9716 20.1776 29.7759 19.3556 29.8157 19.2893C29.9085 19.1214 29.9283 18.8717 29.8643 18.6706C29.7052 18.1934 29.1285 17.9481 28.7109 18.1845C28.6446 18.2243 27.8226 19.0286 26.3046 20.5466L24 22.8512L21.6954 20.5466C20.1774 19.0286 19.3554 18.2243 19.2891 18.1845C18.9953 18.0188 18.5997 18.0873 18.3434 18.3436C18.2263 18.4607 18.1843 18.5292 18.1357 18.6706Z" fill="#FD6400"/>
</svg>
