<svg width="48" height="48" viewBox="0 0 48 48" fill="none" xmlns="http://www.w3.org/2000/svg">
<path d="M0 24C0 10.7452 10.7452 0 24 0C37.2548 0 48 10.7452 48 24C48 37.2548 37.2548 48 24 48C10.7452 48 0 37.2548 0 24Z" fill="#F3F5F6"/>
<path d="M23.6223 16.0844C23.4348 16.1812 23.2723 16.3719 23.2192 16.5562C23.2004 16.6312 23.1879 17.7812 23.1879 19.9279V23.1872H19.9318C17.7819 23.1872 16.632 23.1997 16.557 23.2184C16.0945 23.3465 15.8602 23.9277 16.0883 24.3777C16.182 24.5652 16.3726 24.7277 16.557 24.7808C16.632 24.7996 17.7819 24.8121 19.9318 24.8121H23.1879V28.0682C23.1879 30.2181 23.2004 31.368 23.2192 31.443C23.3473 31.9055 23.9285 32.1398 24.3785 31.9117C24.566 31.818 24.7285 31.6274 24.7816 31.443C24.8003 31.368 24.8128 30.2181 24.8128 28.0682V24.8121H28.0721C30.2188 24.8121 31.3688 24.7996 31.4438 24.7808C31.6281 24.7277 31.8187 24.5652 31.9156 24.3777C32.1406 23.9277 31.9062 23.3465 31.4438 23.2184C31.3688 23.1997 30.2188 23.1872 28.0721 23.1872H24.8128V19.9279C24.8128 17.7812 24.8003 16.6312 24.7816 16.5562C24.691 16.2312 24.3629 16 24.0004 16C23.8348 16 23.7566 16.0188 23.6223 16.0844Z" fill="#191919"/>
</svg>
