<svg width="24" height="14" viewBox="0 0 24 14" fill="none" xmlns="http://www.w3.org/2000/svg">
<path d="M15.3422 0.99542C15.2625 1.01886 15.1078 1.08448 15.0047 1.14542C14.9016 1.20636 13.2 2.86104 11.2172 4.82041C9.23437 6.77979 7.23281 8.75791 6.76875 9.21728L5.92031 10.0517L3.96562 8.02197C1.77656 5.74854 1.75781 5.73448 1.21406 5.73448C0.829687 5.73448 0.642187 5.80479 0.384375 6.03916C0.107812 6.2876 0 6.53604 0 6.93916C0 7.21104 0.0234375 7.31416 0.126562 7.51104C0.215625 7.67041 1.03594 8.55166 2.71406 10.286C4.65937 12.2923 5.21719 12.8454 5.38594 12.9204C5.67656 13.0563 6.13594 13.0563 6.42187 12.9251C6.58125 12.8501 7.81406 11.6595 11.5781 7.9376C14.2969 5.24698 16.5562 3.00167 16.5984 2.9501C16.7859 2.71104 16.8469 2.52354 16.8469 2.19542C16.8469 1.67511 16.5797 1.25323 16.1344 1.07042C15.9281 0.981358 15.5391 0.943857 15.3422 0.99542Z" fill="#FD6400"/>
<path d="M22.4961 1.06102C22.3789 1.09383 22.2148 1.16414 22.1398 1.21571C22.0601 1.26258 20.007 3.27352 17.5742 5.67821L13.1539 10.047L12.9148 9.81727C12.6101 9.51258 12.3383 9.39071 11.9773 9.39539C11.4711 9.39539 11.1289 9.59227 10.8945 10.0095C10.7117 10.3376 10.7023 10.8485 10.8664 11.1626C10.9273 11.2751 11.3164 11.711 11.7336 12.1329C12.4555 12.8641 12.507 12.9063 12.7742 12.9813C13.1117 13.0751 13.5101 13.0235 13.7773 12.8454C13.8711 12.7798 15.2117 11.4813 16.7586 9.95321C22.6601 4.11727 23.8226 2.95008 23.9117 2.75789C24.0289 2.50477 24.0289 1.97977 23.9117 1.72664C23.6773 1.20633 23.0445 0.911018 22.4961 1.06102Z" fill="#FD6400"/>
</svg>
